<svg
                  width="342"
                  height="24"
                  viewBox="0 0 342 24"
                  fill="none"
                  xmlns="http://www.w3.org/2000/svg"
                >
                  <path
                    d="M8.14258 17H7.14648V12.9688H2.63477V17H1.63867V8.43359H2.63477V12.0781H7.14648V8.43359H8.14258V17ZM14.3008 17L14.1074 16.0859H14.0605C13.7402 16.4883 13.4199 16.7617 13.0996 16.9062C12.7832 17.0469 12.3867 17.1172 11.9102 17.1172C11.2734 17.1172 10.7734 16.9531 10.4102 16.625C10.0508 16.2969 9.87109 15.8301 9.87109 15.2246C9.87109 13.9277 10.9082 13.248 12.9824 13.1855L14.0723 13.1504V12.752C14.0723 12.248 13.9629 11.877 13.7441 11.6387C13.5293 11.3965 13.1836 11.2754 12.707 11.2754C12.1719 11.2754 11.5664 11.4395 10.8906 11.7676L10.5918 11.0234C10.9082 10.8516 11.2539 10.7168 11.6289 10.6191C12.0078 10.5215 12.3867 10.4727 12.7656 10.4727C13.5312 10.4727 14.0977 10.6426 14.4648 10.9824C14.8359 11.3223 15.0215 11.8672 15.0215 12.6172V17H14.3008ZM12.1035 16.3145C12.709 16.3145 13.1836 16.1484 13.5273 15.8164C13.875 15.4844 14.0488 15.0195 14.0488 14.4219V13.8418L13.0762 13.8828C12.3027 13.9102 11.7441 14.0312 11.4004 14.2461C11.0605 14.457 10.8906 14.7871 10.8906 15.2363C10.8906 15.5879 10.9961 15.8555 11.207 16.0391C11.4219 16.2227 11.7207 16.3145 12.1035 16.3145ZM20.0195 10.4727C20.8633 10.4727 21.5176 10.7617 21.9824 11.3398C22.4512 11.9141 22.6855 12.7285 22.6855 13.7832C22.6855 14.8379 22.4492 15.6582 21.9766 16.2441C21.5078 16.8262 20.8555 17.1172 20.0195 17.1172C19.6016 17.1172 19.2188 17.041 18.8711 16.8887C18.5273 16.7324 18.2383 16.4941 18.0039 16.1738H17.9336L17.7285 17H17.0312V7.88281H18.0039V10.0977C18.0039 10.5938 17.9883 11.0391 17.957 11.4336H18.0039C18.457 10.793 19.1289 10.4727 20.0195 10.4727ZM19.8789 11.2871C19.2148 11.2871 18.7363 11.4785 18.4434 11.8613C18.1504 12.2402 18.0039 12.8809 18.0039 13.7832C18.0039 14.6855 18.1543 15.332 18.4551 15.7227C18.7559 16.1094 19.2383 16.3027 19.9023 16.3027C20.5 16.3027 20.9453 16.0859 21.2383 15.6523C21.5312 15.2148 21.6777 14.5879 21.6777 13.7715C21.6777 12.9355 21.5312 12.3125 21.2383 11.9023C20.9453 11.4922 20.4922 11.2871 19.8789 11.2871ZM25.3633 17H24.3906V10.5781H25.3633V17ZM24.3086 8.83789C24.3086 8.61523 24.3633 8.45312 24.4727 8.35156C24.582 8.24609 24.7188 8.19336 24.8828 8.19336C25.0391 8.19336 25.1738 8.24609 25.2871 8.35156C25.4004 8.45703 25.457 8.61914 25.457 8.83789C25.457 9.05664 25.4004 9.2207 25.2871 9.33008C25.1738 9.43555 25.0391 9.48828 24.8828 9.48828C24.7188 9.48828 24.582 9.43555 24.4727 9.33008C24.3633 9.2207 24.3086 9.05664 24.3086 8.83789ZM28.3984 17H27.4258V7.88281H28.3984V17ZM31.4336 17H30.4609V10.5781H31.4336V17ZM30.3789 8.83789C30.3789 8.61523 30.4336 8.45312 30.543 8.35156C30.6523 8.24609 30.7891 8.19336 30.9531 8.19336C31.1094 8.19336 31.2441 8.24609 31.3574 8.35156C31.4707 8.45703 31.5273 8.61914 31.5273 8.83789C31.5273 9.05664 31.4707 9.2207 31.3574 9.33008C31.2441 9.43555 31.1094 9.48828 30.9531 9.48828C30.7891 9.48828 30.6523 9.43555 30.543 9.33008C30.4336 9.2207 30.3789 9.05664 30.3789 8.83789ZM35.5703 16.3145C35.7422 16.3145 35.9082 16.3027 36.0684 16.2793C36.2285 16.252 36.3555 16.2246 36.4492 16.1973V16.9414C36.3438 16.9922 36.1875 17.0332 35.9805 17.0645C35.7773 17.0996 35.5938 17.1172 35.4297 17.1172C34.1875 17.1172 33.5664 16.4629 33.5664 15.1543V11.334H32.6465V10.8652L33.5664 10.4609L33.9766 9.08984H34.5391V10.5781H36.4023V11.334H34.5391V15.1133C34.5391 15.5 34.6309 15.7969 34.8145 16.0039C34.998 16.2109 35.25 16.3145 35.5703 16.3145ZM41.6875 17L41.4941 16.0859H41.4473C41.127 16.4883 40.8066 16.7617 40.4863 16.9062C40.1699 17.0469 39.7734 17.1172 39.2969 17.1172C38.6602 17.1172 38.1602 16.9531 37.7969 16.625C37.4375 16.2969 37.2578 15.8301 37.2578 15.2246C37.2578 13.9277 38.2949 13.248 40.3691 13.1855L41.459 13.1504V12.752C41.459 12.248 41.3496 11.877 41.1309 11.6387C40.916 11.3965 40.5703 11.2754 40.0938 11.2754C39.5586 11.2754 38.9531 11.4395 38.2773 11.7676L37.9785 11.0234C38.2949 10.8516 38.6406 10.7168 39.0156 10.6191C39.3945 10.5215 39.7734 10.4727 40.1523 10.4727C40.918 10.4727 41.4844 10.6426 41.8516 10.9824C42.2227 11.3223 42.4082 11.8672 42.4082 12.6172V17H41.6875ZM39.4902 16.3145C40.0957 16.3145 40.5703 16.1484 40.9141 15.8164C41.2617 15.4844 41.4355 15.0195 41.4355 14.4219V13.8418L40.4629 13.8828C39.6895 13.9102 39.1309 14.0312 38.7871 14.2461C38.4473 14.457 38.2773 14.7871 38.2773 15.2363C38.2773 15.5879 38.3828 15.8555 38.5938 16.0391C38.8086 16.2227 39.1074 16.3145 39.4902 16.3145ZM48.7891 16.1387H48.7363C48.2871 16.791 47.6152 17.1172 46.7207 17.1172C45.8809 17.1172 45.2266 16.8301 44.7578 16.2559C44.293 15.6816 44.0605 14.8652 44.0605 13.8066C44.0605 12.748 44.2949 11.9258 44.7637 11.3398C45.2324 10.7539 45.8848 10.4609 46.7207 10.4609C47.5918 10.4609 48.2598 10.7773 48.7246 11.4102H48.8008L48.7598 10.9473L48.7363 10.4961V7.88281H49.709V17H48.918L48.7891 16.1387ZM46.8438 16.3027C47.5078 16.3027 47.9883 16.123 48.2852 15.7637C48.5859 15.4004 48.7363 14.8164 48.7363 14.0117V13.8066C48.7363 12.8965 48.584 12.248 48.2793 11.8613C47.9785 11.4707 47.4961 11.2754 46.832 11.2754C46.2617 11.2754 45.8242 11.498 45.5195 11.9434C45.2188 12.3848 45.0684 13.0098 45.0684 13.8184C45.0684 14.6387 45.2188 15.2578 45.5195 15.6758C45.8203 16.0938 46.2617 16.3027 46.8438 16.3027ZM57.3203 13.7832C57.3203 14.8301 57.0566 15.6484 56.5293 16.2383C56.002 16.8242 55.2734 17.1172 54.3438 17.1172C53.7695 17.1172 53.2598 16.9824 52.8145 16.7129C52.3691 16.4434 52.0254 16.0566 51.7832 15.5527C51.541 15.0488 51.4199 14.459 51.4199 13.7832C51.4199 12.7363 51.6816 11.9219 52.2051 11.3398C52.7285 10.7539 53.4551 10.4609 54.3848 10.4609C55.2832 10.4609 55.9961 10.7598 56.5234 11.3574C57.0547 11.9551 57.3203 12.7637 57.3203 13.7832ZM52.4277 13.7832C52.4277 14.6035 52.5918 15.2285 52.9199 15.6582C53.248 16.0879 53.7305 16.3027 54.3672 16.3027C55.0039 16.3027 55.4863 16.0898 55.8145 15.6641C56.1465 15.2344 56.3125 14.6074 56.3125 13.7832C56.3125 12.9668 56.1465 12.3477 55.8145 11.9258C55.4863 11.5 55 11.2871 54.3555 11.2871C53.7188 11.2871 53.2383 11.4961 52.9141 11.9141C52.5898 12.332 52.4277 12.9551 52.4277 13.7832Z"
                    fill="black"
                  />
                  <path
                    d="M115.734 17H110.959V8.43359H115.734V9.31836H111.955V12.0781H115.506V12.957H111.955V16.1094H115.734V17ZM121.887 17V12.8457C121.887 12.3223 121.768 11.9316 121.529 11.6738C121.291 11.416 120.918 11.2871 120.41 11.2871C119.738 11.2871 119.246 11.4688 118.934 11.832C118.621 12.1953 118.465 12.7949 118.465 13.6309V17H117.492V10.5781H118.283L118.441 11.457H118.488C118.688 11.1406 118.967 10.8965 119.326 10.7246C119.686 10.5488 120.086 10.4609 120.527 10.4609C121.301 10.4609 121.883 10.6484 122.273 11.0234C122.664 11.3945 122.859 11.9902 122.859 12.8105V17H121.887ZM133.523 13.7832C133.523 14.8301 133.26 15.6484 132.732 16.2383C132.205 16.8242 131.477 17.1172 130.547 17.1172C129.973 17.1172 129.463 16.9824 129.018 16.7129C128.572 16.4434 128.229 16.0566 127.986 15.5527C127.744 15.0488 127.623 14.459 127.623 13.7832C127.623 12.7363 127.885 11.9219 128.408 11.3398C128.932 10.7539 129.658 10.4609 130.588 10.4609C131.486 10.4609 132.199 10.7598 132.727 11.3574C133.258 11.9551 133.523 12.7637 133.523 13.7832ZM128.631 13.7832C128.631 14.6035 128.795 15.2285 129.123 15.6582C129.451 16.0879 129.934 16.3027 130.57 16.3027C131.207 16.3027 131.689 16.0898 132.018 15.6641C132.35 15.2344 132.516 14.6074 132.516 13.7832C132.516 12.9668 132.35 12.3477 132.018 11.9258C131.689 11.5 131.203 11.2871 130.559 11.2871C129.922 11.2871 129.441 11.4961 129.117 11.9141C128.793 12.332 128.631 12.9551 128.631 13.7832ZM138.223 10.4727C139.066 10.4727 139.721 10.7617 140.186 11.3398C140.654 11.9141 140.889 12.7285 140.889 13.7832C140.889 14.8379 140.652 15.6582 140.18 16.2441C139.711 16.8262 139.059 17.1172 138.223 17.1172C137.805 17.1172 137.422 17.041 137.074 16.8887C136.73 16.7324 136.441 16.4941 136.207 16.1738H136.137L135.932 17H135.234V7.88281H136.207V10.0977C136.207 10.5938 136.191 11.0391 136.16 11.4336H136.207C136.66 10.793 137.332 10.4727 138.223 10.4727ZM138.082 11.2871C137.418 11.2871 136.939 11.4785 136.646 11.8613C136.354 12.2402 136.207 12.8809 136.207 13.7832C136.207 14.6855 136.357 15.332 136.658 15.7227C136.959 16.1094 137.441 16.3027 138.105 16.3027C138.703 16.3027 139.148 16.0859 139.441 15.6523C139.734 15.2148 139.881 14.5879 139.881 13.7715C139.881 12.9355 139.734 12.3125 139.441 11.9023C139.148 11.4922 138.695 11.2871 138.082 11.2871ZM146.736 15.248C146.736 15.8457 146.514 16.3066 146.068 16.6309C145.623 16.9551 144.998 17.1172 144.193 17.1172C143.342 17.1172 142.678 16.9824 142.201 16.7129V15.8105C142.51 15.9668 142.84 16.0898 143.191 16.1797C143.547 16.2695 143.889 16.3145 144.217 16.3145C144.725 16.3145 145.115 16.2344 145.389 16.0742C145.662 15.9102 145.799 15.6621 145.799 15.3301C145.799 15.0801 145.689 14.8672 145.471 14.6914C145.256 14.5117 144.834 14.3008 144.205 14.0586C143.607 13.8359 143.182 13.6426 142.928 13.4785C142.678 13.3105 142.49 13.1211 142.365 12.9102C142.244 12.6992 142.184 12.4473 142.184 12.1543C142.184 11.6309 142.396 11.2188 142.822 10.918C143.248 10.6133 143.832 10.4609 144.574 10.4609C145.266 10.4609 145.941 10.6016 146.602 10.8828L146.256 11.6738C145.611 11.4082 145.027 11.2754 144.504 11.2754C144.043 11.2754 143.695 11.3477 143.461 11.4922C143.227 11.6367 143.109 11.8359 143.109 12.0898C143.109 12.2617 143.152 12.4082 143.238 12.5293C143.328 12.6504 143.471 12.7656 143.666 12.875C143.861 12.9844 144.236 13.1426 144.791 13.3496C145.553 13.627 146.066 13.9062 146.332 14.1875C146.602 14.4688 146.736 14.8223 146.736 15.248ZM151.037 17.1172C150.088 17.1172 149.338 16.8281 148.787 16.25C148.24 15.6719 147.967 14.8691 147.967 13.8418C147.967 12.8066 148.221 11.9844 148.729 11.375C149.24 10.7656 149.926 10.4609 150.785 10.4609C151.59 10.4609 152.227 10.7266 152.695 11.2578C153.164 11.7852 153.398 12.4824 153.398 13.3496V13.9648H148.975C148.994 14.7188 149.184 15.291 149.543 15.6816C149.906 16.0723 150.416 16.2676 151.072 16.2676C151.764 16.2676 152.447 16.123 153.123 15.834V16.7012C152.779 16.8496 152.453 16.9551 152.145 17.0176C151.84 17.084 151.471 17.1172 151.037 17.1172ZM150.773 11.2754C150.258 11.2754 149.846 11.4434 149.537 11.7793C149.232 12.1152 149.053 12.5801 148.998 13.1738H152.355C152.355 12.5605 152.219 12.0918 151.945 11.7676C151.672 11.4395 151.281 11.2754 150.773 11.2754ZM157.992 10.4609C158.277 10.4609 158.533 10.4844 158.76 10.5312L158.625 11.4336C158.359 11.375 158.125 11.3457 157.922 11.3457C157.402 11.3457 156.957 11.5566 156.586 11.9785C156.219 12.4004 156.035 12.9258 156.035 13.5547V17H155.062V10.5781H155.865L155.977 11.7676H156.023C156.262 11.3496 156.549 11.0273 156.885 10.8008C157.221 10.5742 157.59 10.4609 157.992 10.4609ZM161.367 17L158.93 10.5781H159.973L161.355 14.3867C161.668 15.2773 161.852 15.8555 161.906 16.1211H161.953C161.996 15.9141 162.131 15.4863 162.357 14.8379C162.588 14.1855 163.102 12.7656 163.898 10.5781H164.941L162.504 17H161.367ZM169.922 17L169.729 16.0859H169.682C169.361 16.4883 169.041 16.7617 168.721 16.9062C168.404 17.0469 168.008 17.1172 167.531 17.1172C166.895 17.1172 166.395 16.9531 166.031 16.625C165.672 16.2969 165.492 15.8301 165.492 15.2246C165.492 13.9277 166.529 13.248 168.604 13.1855L169.693 13.1504V12.752C169.693 12.248 169.584 11.877 169.365 11.6387C169.15 11.3965 168.805 11.2754 168.328 11.2754C167.793 11.2754 167.188 11.4395 166.512 11.7676L166.213 11.0234C166.529 10.8516 166.875 10.7168 167.25 10.6191C167.629 10.5215 168.008 10.4727 168.387 10.4727C169.152 10.4727 169.719 10.6426 170.086 10.9824C170.457 11.3223 170.643 11.8672 170.643 12.6172V17H169.922ZM167.725 16.3145C168.33 16.3145 168.805 16.1484 169.148 15.8164C169.496 15.4844 169.67 15.0195 169.67 14.4219V13.8418L168.697 13.8828C167.924 13.9102 167.365 14.0312 167.021 14.2461C166.682 14.457 166.512 14.7871 166.512 15.2363C166.512 15.5879 166.617 15.8555 166.828 16.0391C167.043 16.2227 167.342 16.3145 167.725 16.3145ZM175.219 17.1172C174.289 17.1172 173.568 16.832 173.057 16.2617C172.549 15.6875 172.295 14.877 172.295 13.8301C172.295 12.7559 172.553 11.9258 173.068 11.3398C173.588 10.7539 174.326 10.4609 175.283 10.4609C175.592 10.4609 175.9 10.4941 176.209 10.5605C176.518 10.627 176.76 10.7051 176.936 10.7949L176.637 11.6211C176.422 11.5352 176.188 11.4648 175.934 11.4102C175.68 11.3516 175.455 11.3223 175.26 11.3223C173.955 11.3223 173.303 12.1543 173.303 13.8184C173.303 14.6074 173.461 15.2129 173.777 15.6348C174.098 16.0566 174.57 16.2676 175.195 16.2676C175.73 16.2676 176.279 16.1523 176.842 15.9219V16.7832C176.412 17.0059 175.871 17.1172 175.219 17.1172ZM179.344 17H178.371V10.5781H179.344V17ZM178.289 8.83789C178.289 8.61523 178.344 8.45312 178.453 8.35156C178.562 8.24609 178.699 8.19336 178.863 8.19336C179.02 8.19336 179.154 8.24609 179.268 8.35156C179.381 8.45703 179.438 8.61914 179.438 8.83789C179.438 9.05664 179.381 9.2207 179.268 9.33008C179.154 9.43555 179.02 9.48828 178.863 9.48828C178.699 9.48828 178.562 9.43555 178.453 9.33008C178.344 9.2207 178.289 9.05664 178.289 8.83789ZM186.949 13.7832C186.949 14.8301 186.686 15.6484 186.158 16.2383C185.631 16.8242 184.902 17.1172 183.973 17.1172C183.398 17.1172 182.889 16.9824 182.443 16.7129C181.998 16.4434 181.654 16.0566 181.412 15.5527C181.17 15.0488 181.049 14.459 181.049 13.7832C181.049 12.7363 181.311 11.9219 181.834 11.3398C182.357 10.7539 183.084 10.4609 184.014 10.4609C184.912 10.4609 185.625 10.7598 186.152 11.3574C186.684 11.9551 186.949 12.7637 186.949 13.7832ZM182.057 13.7832C182.057 14.6035 182.221 15.2285 182.549 15.6582C182.877 16.0879 183.359 16.3027 183.996 16.3027C184.633 16.3027 185.115 16.0898 185.443 15.6641C185.775 15.2344 185.941 14.6074 185.941 13.7832C185.941 12.9668 185.775 12.3477 185.443 11.9258C185.115 11.5 184.629 11.2871 183.984 11.2871C183.348 11.2871 182.867 11.4961 182.543 11.9141C182.219 12.332 182.057 12.9551 182.057 13.7832ZM183.182 9.58203C183.369 9.33984 183.57 9.04688 183.785 8.70312C184.004 8.35938 184.176 8.06055 184.301 7.80664H185.484V7.92969C185.312 8.18359 185.057 8.49609 184.717 8.86719C184.377 9.23828 184.082 9.52539 183.832 9.72852H183.182V9.58203ZM193.055 17V12.8457C193.055 12.3223 192.936 11.9316 192.697 11.6738C192.459 11.416 192.086 11.2871 191.578 11.2871C190.906 11.2871 190.414 11.4688 190.102 11.832C189.789 12.1953 189.633 12.7949 189.633 13.6309V17H188.66V10.5781H189.451L189.609 11.457H189.656C189.855 11.1406 190.135 10.8965 190.494 10.7246C190.854 10.5488 191.254 10.4609 191.695 10.4609C192.469 10.4609 193.051 10.6484 193.441 11.0234C193.832 11.3945 194.027 11.9902 194.027 12.8105V17H193.055Z"
                    fill="black"
                  />
                  <path
                    d="M245.404 17V8.43359H246.4V17H245.404ZM253.004 17V12.8457C253.004 12.3223 252.885 11.9316 252.646 11.6738C252.408 11.416 252.035 11.2871 251.527 11.2871C250.855 11.2871 250.363 11.4688 250.051 11.832C249.738 12.1953 249.582 12.7949 249.582 13.6309V17H248.609V10.5781H249.4L249.559 11.457H249.605C249.805 11.1406 250.084 10.8965 250.443 10.7246C250.803 10.5488 251.203 10.4609 251.645 10.4609C252.418 10.4609 253 10.6484 253.391 11.0234C253.781 11.3945 253.977 11.9902 253.977 12.8105V17H253.004ZM260.375 17V12.8457C260.375 12.3223 260.256 11.9316 260.018 11.6738C259.779 11.416 259.406 11.2871 258.898 11.2871C258.223 11.2871 257.729 11.4707 257.416 11.8379C257.107 12.2051 256.953 12.8066 256.953 13.6426V17H255.98V7.88281H256.953V10.6426C256.953 10.9746 256.938 11.25 256.906 11.4688H256.965C257.156 11.1602 257.428 10.918 257.779 10.7422C258.135 10.5625 258.539 10.4727 258.992 10.4727C259.777 10.4727 260.365 10.6602 260.756 11.0352C261.15 11.4062 261.348 11.998 261.348 12.8105V17H260.375ZM267.301 17L267.107 16.0859H267.061C266.74 16.4883 266.42 16.7617 266.1 16.9062C265.783 17.0469 265.387 17.1172 264.91 17.1172C264.273 17.1172 263.773 16.9531 263.41 16.625C263.051 16.2969 262.871 15.8301 262.871 15.2246C262.871 13.9277 263.908 13.248 265.982 13.1855L267.072 13.1504V12.752C267.072 12.248 266.963 11.877 266.744 11.6387C266.529 11.3965 266.184 11.2754 265.707 11.2754C265.172 11.2754 264.566 11.4395 263.891 11.7676L263.592 11.0234C263.908 10.8516 264.254 10.7168 264.629 10.6191C265.008 10.5215 265.387 10.4727 265.766 10.4727C266.531 10.4727 267.098 10.6426 267.465 10.9824C267.836 11.3223 268.021 11.8672 268.021 12.6172V17H267.301ZM265.104 16.3145C265.709 16.3145 266.184 16.1484 266.527 15.8164C266.875 15.4844 267.049 15.0195 267.049 14.4219V13.8418L266.076 13.8828C265.303 13.9102 264.744 14.0312 264.4 14.2461C264.061 14.457 263.891 14.7871 263.891 15.2363C263.891 15.5879 263.996 15.8555 264.207 16.0391C264.422 16.2227 264.721 16.3145 265.104 16.3145ZM273.02 10.4727C273.863 10.4727 274.518 10.7617 274.982 11.3398C275.451 11.9141 275.686 12.7285 275.686 13.7832C275.686 14.8379 275.449 15.6582 274.977 16.2441C274.508 16.8262 273.855 17.1172 273.02 17.1172C272.602 17.1172 272.219 17.041 271.871 16.8887C271.527 16.7324 271.238 16.4941 271.004 16.1738H270.934L270.729 17H270.031V7.88281H271.004V10.0977C271.004 10.5938 270.988 11.0391 270.957 11.4336H271.004C271.457 10.793 272.129 10.4727 273.02 10.4727ZM272.879 11.2871C272.215 11.2871 271.736 11.4785 271.443 11.8613C271.15 12.2402 271.004 12.8809 271.004 13.7832C271.004 14.6855 271.154 15.332 271.455 15.7227C271.756 16.1094 272.238 16.3027 272.902 16.3027C273.5 16.3027 273.945 16.0859 274.238 15.6523C274.531 15.2148 274.678 14.5879 274.678 13.7715C274.678 12.9355 274.531 12.3125 274.238 11.9023C273.945 11.4922 273.492 11.2871 272.879 11.2871ZM278.363 17H277.391V10.5781H278.363V17ZM277.309 8.83789C277.309 8.61523 277.363 8.45312 277.473 8.35156C277.582 8.24609 277.719 8.19336 277.883 8.19336C278.039 8.19336 278.174 8.24609 278.287 8.35156C278.4 8.45703 278.457 8.61914 278.457 8.83789C278.457 9.05664 278.4 9.2207 278.287 9.33008C278.174 9.43555 278.039 9.48828 277.883 9.48828C277.719 9.48828 277.582 9.43555 277.473 9.33008C277.363 9.2207 277.309 9.05664 277.309 8.83789ZM281.398 17H280.426V7.88281H281.398V17ZM284.434 17H283.461V10.5781H284.434V17ZM283.379 8.83789C283.379 8.61523 283.434 8.45312 283.543 8.35156C283.652 8.24609 283.789 8.19336 283.953 8.19336C284.109 8.19336 284.244 8.24609 284.357 8.35156C284.471 8.45703 284.527 8.61914 284.527 8.83789C284.527 9.05664 284.471 9.2207 284.357 9.33008C284.244 9.43555 284.109 9.48828 283.953 9.48828C283.789 9.48828 283.652 9.43555 283.543 9.33008C283.434 9.2207 283.379 9.05664 283.379 8.83789ZM288.57 16.3145C288.742 16.3145 288.908 16.3027 289.068 16.2793C289.229 16.252 289.355 16.2246 289.449 16.1973V16.9414C289.344 16.9922 289.188 17.0332 288.98 17.0645C288.777 17.0996 288.594 17.1172 288.43 17.1172C287.188 17.1172 286.566 16.4629 286.566 15.1543V11.334H285.646V10.8652L286.566 10.4609L286.977 9.08984H287.539V10.5781H289.402V11.334H287.539V15.1133C287.539 15.5 287.631 15.7969 287.814 16.0039C287.998 16.2109 288.25 16.3145 288.57 16.3145ZM294.688 17L294.494 16.0859H294.447C294.127 16.4883 293.807 16.7617 293.486 16.9062C293.17 17.0469 292.773 17.1172 292.297 17.1172C291.66 17.1172 291.16 16.9531 290.797 16.625C290.438 16.2969 290.258 15.8301 290.258 15.2246C290.258 13.9277 291.295 13.248 293.369 13.1855L294.459 13.1504V12.752C294.459 12.248 294.35 11.877 294.131 11.6387C293.916 11.3965 293.57 11.2754 293.094 11.2754C292.559 11.2754 291.953 11.4395 291.277 11.7676L290.979 11.0234C291.295 10.8516 291.641 10.7168 292.016 10.6191C292.395 10.5215 292.773 10.4727 293.152 10.4727C293.918 10.4727 294.484 10.6426 294.852 10.9824C295.223 11.3223 295.408 11.8672 295.408 12.6172V17H294.688ZM292.49 16.3145C293.096 16.3145 293.57 16.1484 293.914 15.8164C294.262 15.4844 294.436 15.0195 294.436 14.4219V13.8418L293.463 13.8828C292.689 13.9102 292.131 14.0312 291.787 14.2461C291.447 14.457 291.277 14.7871 291.277 15.2363C291.277 15.5879 291.383 15.8555 291.594 16.0391C291.809 16.2227 292.107 16.3145 292.49 16.3145ZM301.789 16.1387H301.736C301.287 16.791 300.615 17.1172 299.721 17.1172C298.881 17.1172 298.227 16.8301 297.758 16.2559C297.293 15.6816 297.061 14.8652 297.061 13.8066C297.061 12.748 297.295 11.9258 297.764 11.3398C298.232 10.7539 298.885 10.4609 299.721 10.4609C300.592 10.4609 301.26 10.7773 301.725 11.4102H301.801L301.76 10.9473L301.736 10.4961V7.88281H302.709V17H301.918L301.789 16.1387ZM299.844 16.3027C300.508 16.3027 300.988 16.123 301.285 15.7637C301.586 15.4004 301.736 14.8164 301.736 14.0117V13.8066C301.736 12.8965 301.584 12.248 301.279 11.8613C300.979 11.4707 300.496 11.2754 299.832 11.2754C299.262 11.2754 298.824 11.498 298.52 11.9434C298.219 12.3848 298.068 13.0098 298.068 13.8184C298.068 14.6387 298.219 15.2578 298.52 15.6758C298.82 16.0938 299.262 16.3027 299.844 16.3027ZM310.32 13.7832C310.32 14.8301 310.057 15.6484 309.529 16.2383C309.002 16.8242 308.273 17.1172 307.344 17.1172C306.77 17.1172 306.26 16.9824 305.814 16.7129C305.369 16.4434 305.025 16.0566 304.783 15.5527C304.541 15.0488 304.42 14.459 304.42 13.7832C304.42 12.7363 304.682 11.9219 305.205 11.3398C305.729 10.7539 306.455 10.4609 307.385 10.4609C308.283 10.4609 308.996 10.7598 309.523 11.3574C310.055 11.9551 310.32 12.7637 310.32 13.7832ZM305.428 13.7832C305.428 14.6035 305.592 15.2285 305.92 15.6582C306.248 16.0879 306.73 16.3027 307.367 16.3027C308.004 16.3027 308.486 16.0898 308.814 15.6641C309.146 15.2344 309.312 14.6074 309.312 13.7832C309.312 12.9668 309.146 12.3477 308.814 11.9258C308.486 11.5 308 11.2871 307.355 11.2871C306.719 11.2871 306.238 11.4961 305.914 11.9141C305.59 12.332 305.428 12.9551 305.428 13.7832Z"
                    fill="black"
                  />
                  <rect x="67" width="24" height="24" fill="#116219" />
                  <rect x="202" width="24" height="24" fill="#FFC700" />
                  <rect x="318" width="24" height="24" fill="#FF0000" />
                </svg>