<svg width="72" height="72" viewBox="0 0 72 72" fill="none" xmlns="http://www.w3.org/2000/svg">
<circle cx="36" cy="36" r="36" fill="#9D7EDB"/>
<path d="M48 49.5V46.5C48 44.9087 47.3679 43.3826 46.2426 42.2574C45.1174 41.1321 43.5913 40.5 42 40.5H30C28.4087 40.5 26.8826 41.1321 25.7574 42.2574C24.6321 43.3826 24 44.9087 24 46.5V49.5" stroke="white" stroke-width="1.5" stroke-linecap="round" stroke-linejoin="round"/>
<path d="M36 34.5C39.3137 34.5 42 31.8137 42 28.5C42 25.1863 39.3137 22.5 36 22.5C32.6863 22.5 30 25.1863 30 28.5C30 31.8137 32.6863 34.5 36 34.5Z" stroke="white" stroke-width="1.5" stroke-linecap="round" stroke-linejoin="round"/>
</svg>
