<svg width="19" height="19" viewBox="0 0 19 19" fill="none" xmlns="http://www.w3.org/2000/svg">
<path d="M14.1667 1.68926C14.3856 1.47039 14.6455 1.29677 14.9314 1.17832C15.2174 1.05987 15.5239 0.998901 15.8334 0.998901C16.1429 0.998901 16.4494 1.05987 16.7354 1.17832C17.0214 1.29677 17.2812 1.47039 17.5001 1.68926C17.719 1.90813 17.8926 2.16796 18.011 2.45393C18.1295 2.7399 18.1904 3.0464 18.1904 3.35592C18.1904 3.66545 18.1295 3.97195 18.011 4.25792C17.8926 4.54388 17.719 4.80372 17.5001 5.02259L6.25008 16.2726L1.66675 17.5226L2.91675 12.9393L14.1667 1.68926Z" stroke="#9D7EDB" stroke-width="1.5" stroke-linecap="round" stroke-linejoin="round"/>
</svg>
