<svg width="20" height="18" viewBox="0 0 20 18" fill="none" xmlns="http://www.w3.org/2000/svg">
<path d="M18.0156 5.01562V3L10 8.01562L1.98438 3V5.01562L10 9.98438L18.0156 5.01562ZM18.0156 0.984375C18.5469 0.984375 19 1.1875 19.375 1.59375C19.7812 2 19.9844 2.46875 19.9844 3V15C19.9844 15.5312 19.7812 16 19.375 16.4062C19 16.8125 18.5469 17.0156 18.0156 17.0156H1.98438C1.45312 17.0156 0.984375 16.8125 0.578125 16.4062C0.203125 16 0.015625 15.5312 0.015625 15V3C0.015625 2.46875 0.203125 2 0.578125 1.59375C0.984375 1.1875 1.45312 0.984375 1.98438 0.984375H18.0156Z" fill="#6E3CD2"/>
</svg>
