<svg width="24" height="24" viewBox="0 0 24 24" fill="none" xmlns="http://www.w3.org/2000/svg">
<path d="M9.98438 17.0156L18 9L16.5938 7.59375L9.98438 14.1562L7.40625 11.5781L6 12.9844L9.98438 17.0156ZM12.7031 3.28125C12.5156 3.09375 12.2812 3 12 3C11.7188 3 11.4844 3.09375 11.2969 3.28125C11.1094 3.46875 11.0156 3.70312 11.0156 3.98438C11.0156 4.26562 11.1094 4.51562 11.2969 4.73438C11.4844 4.92188 11.7188 5.01562 12 5.01562C12.2812 5.01562 12.5156 4.92188 12.7031 4.73438C12.8906 4.51562 12.9844 4.26562 12.9844 3.98438C12.9844 3.70312 12.8906 3.46875 12.7031 3.28125ZM18.9844 3C19.5156 3 19.9844 3.20312 20.3906 3.60938C20.7969 4.01562 21 4.48438 21 5.01562V18.9844C21 19.5156 20.7969 19.9844 20.3906 20.3906C19.9844 20.7969 19.5156 21 18.9844 21H5.01562C4.48438 21 4.01562 20.7969 3.60938 20.3906C3.20312 19.9844 3 19.5156 3 18.9844V5.01562C3 4.48438 3.20312 4.01562 3.60938 3.60938C4.01562 3.20312 4.48438 3 5.01562 3H9.1875C9.40625 2.40625 9.76562 1.92188 10.2656 1.54688C10.7656 1.17188 11.3438 0.984375 12 0.984375C12.6562 0.984375 13.2344 1.17188 13.7344 1.54688C14.2344 1.92188 14.5938 2.40625 14.8125 3H18.9844Z" fill="#6E3CD2"/>
</svg>
